<svg width="98" height="98" viewBox="0 0 98 98" fill="none" xmlns="http://www.w3.org/2000/svg">
<g clip-path="url(#clip0_2944_13184)">
<rect width="98" height="98" rx="24" fill="#D2D6DB"/>
<path d="M70 48C70 59.598 60.598 69 49 69C37.402 69 28 59.598 28 48C28 36.402 37.402 27 49 27C60.598 27 70 36.402 70 48Z" fill="#FAFAFA"/>
<path d="M90 102C90 96.6158 88.9395 91.2843 86.8791 86.31C84.8186 81.3356 81.7986 76.8158 77.9914 73.0086C74.1842 69.2014 69.6644 66.1814 64.69 64.1209C59.7157 62.0605 54.3842 61 49 61C43.6158 61 38.2843 62.0605 33.31 64.1209C28.3356 66.1814 23.8158 69.2014 20.0086 73.0086C16.2014 76.8158 13.1814 81.3356 11.1209 86.31C9.0605 91.2843 8 96.6158 8 102H90Z" fill="#FAFAFA"/>
<path d="M53.9756 50.8336C52.6677 52.2207 50.894 53 49.0446 53C47.1951 53 45.4214 52.2207 44.1135 50.8336M44 43.6245V39M54 43.6245V39" stroke="#828F9B" stroke-width="2" stroke-linecap="round" stroke-linejoin="round"/>
</g>
<defs>
<clipPath id="clip0_2944_13184">
<rect width="98" height="98" rx="24" fill="white"/>
</clipPath>
</defs>
</svg>
