<svg width="25" height="25" viewBox="0 0 25 25" fill="none" xmlns="http://www.w3.org/2000/svg">
<path fill-rule="evenodd" clip-rule="evenodd" d="M2.91667 3.875C2.91667 2.28718 4.20385 1 5.79167 1C7.37949 1 8.66667 2.28718 8.66667 3.875V10.5833H16.3333V3.875C16.3333 2.28718 17.6205 1 19.2083 1C20.7962 1 22.0833 2.28718 22.0833 3.875V11.6469C23.2503 12.5623 24 13.9852 24 15.5833V19C24 21.7614 21.7614 24 19 24H6C3.23858 24 1 21.7614 1 19V15.5833C1 13.9852 1.74974 12.5623 2.91667 11.6469V3.875Z" fill="white"/>
<path d="M8.66667 10.5833H8.16667V11.0833H8.66667V10.5833ZM16.3333 10.5833V11.0833H16.8333V10.5833H16.3333ZM22.0833 11.6469H21.5833V11.8902L21.7747 12.0403L22.0833 11.6469ZM2.91667 11.6469L3.22525 12.0404L3.41667 11.8902V11.6469H2.91667ZM5.79167 0.5C3.92771 0.5 2.41667 2.01104 2.41667 3.875H3.41667C3.41667 2.56333 4.47999 1.5 5.79167 1.5V0.5ZM9.16667 3.875C9.16667 2.01104 7.65563 0.5 5.79167 0.5V1.5C7.10334 1.5 8.16667 2.56332 8.16667 3.875H9.16667ZM9.16667 10.5833V3.875H8.16667V10.5833H9.16667ZM16.3333 10.0833H8.66667V11.0833H16.3333V10.0833ZM16.8333 10.5833V3.875H15.8333V10.5833H16.8333ZM16.8333 3.875C16.8333 2.56333 17.8967 1.5 19.2083 1.5V0.5C17.3444 0.5 15.8333 2.01104 15.8333 3.875H16.8333ZM19.2083 1.5C20.52 1.5 21.5833 2.56332 21.5833 3.875H22.5833C22.5833 2.01104 21.0723 0.5 19.2083 0.5V1.5ZM21.5833 3.875V11.6469H22.5833V3.875H21.5833ZM24.5 15.5833C24.5 13.8252 23.6745 12.2595 22.3919 11.2535L21.7747 12.0403C22.826 12.865 23.5 14.1453 23.5 15.5833H24.5ZM24.5 19V15.5833H23.5V19H24.5ZM19 24.5C22.0376 24.5 24.5 22.0376 24.5 19H23.5C23.5 21.4853 21.4853 23.5 19 23.5V24.5ZM6 24.5H19V23.5H6V24.5ZM0.5 19C0.5 22.0376 2.96243 24.5 6 24.5V23.5C3.51472 23.5 1.5 21.4853 1.5 19H0.5ZM0.5 15.5833V19H1.5V15.5833H0.5ZM2.60808 11.2535C1.32552 12.2595 0.5 13.8252 0.5 15.5833H1.5C1.5 14.1453 2.17396 12.865 3.22525 12.0404L2.60808 11.2535ZM2.41667 3.875V11.6469H3.41667V3.875H2.41667Z" fill="#555555"/>
</svg>
